<svg width="157" height="55" viewBox="0 0 157 55" fill="none" xmlns="http://www.w3.org/2000/svg">
<path d="M27.744 28.36C27.744 27.32 27.928 26.296 28.296 25.288C28.68 24.28 29.232 23.368 29.952 22.552C30.672 21.736 31.552 21.088 32.592 20.608C33.632 20.112 34.816 19.864 36.144 19.864C37.696 19.864 39.048 20.208 40.2 20.896C41.352 21.584 42.208 22.48 42.768 23.584L40.224 25.336C39.936 24.696 39.56 24.192 39.096 23.824C38.632 23.456 38.128 23.192 37.584 23.032C37.056 22.872 36.544 22.792 36.048 22.792C35.216 22.792 34.488 22.96 33.864 23.296C33.256 23.632 32.744 24.072 32.328 24.616C31.912 25.16 31.6 25.768 31.392 26.44C31.2 27.112 31.104 27.784 31.104 28.456C31.104 29.464 31.312 30.408 31.728 31.288C32.144 32.152 32.728 32.856 33.48 33.4C34.232 33.944 35.104 34.216 36.096 34.216C36.608 34.216 37.136 34.128 37.68 33.952C38.24 33.776 38.752 33.496 39.216 33.112C39.68 32.728 40.04 32.232 40.296 31.624L43.008 33.184C42.656 34.032 42.104 34.752 41.352 35.344C40.6 35.92 39.752 36.368 38.808 36.688C37.864 36.992 36.928 37.144 36 37.144C34.784 37.144 33.672 36.896 32.664 36.4C31.672 35.888 30.808 35.216 30.072 34.384C29.336 33.536 28.76 32.592 28.344 31.552C27.944 30.496 27.744 29.432 27.744 28.36ZM55.5302 37.12C54.2822 37.12 53.1462 36.88 52.1222 36.4C51.1142 35.92 50.2422 35.272 49.5062 34.456C48.7862 33.624 48.2262 32.696 47.8262 31.672C47.4262 30.632 47.2262 29.568 47.2262 28.48C47.2262 27.344 47.4342 26.264 47.8502 25.24C48.2662 24.2 48.8502 23.28 49.6022 22.48C50.3542 21.664 51.2342 21.024 52.2422 20.56C53.2662 20.08 54.3862 19.84 55.6022 19.84C56.8342 19.84 57.9542 20.088 58.9622 20.584C59.9862 21.08 60.8582 21.744 61.5782 22.576C62.3142 23.408 62.8742 24.344 63.2582 25.384C63.6582 26.408 63.8582 27.456 63.8582 28.528C63.8582 29.648 63.6502 30.728 63.2342 31.768C62.8182 32.792 62.2342 33.712 61.4822 34.528C60.7462 35.328 59.8662 35.96 58.8422 36.424C57.8342 36.888 56.7302 37.12 55.5302 37.12ZM50.5862 28.48C50.5862 29.472 50.7782 30.4 51.1622 31.264C51.5622 32.128 52.1302 32.832 52.8662 33.376C53.6182 33.92 54.5142 34.192 55.5542 34.192C56.6262 34.192 57.5302 33.912 58.2662 33.352C59.0022 32.792 59.5622 32.072 59.9462 31.192C60.3302 30.312 60.5222 29.408 60.5222 28.48C60.5222 27.488 60.3222 26.56 59.9222 25.696C59.5222 24.832 58.9462 24.136 58.1942 23.608C57.4582 23.064 56.5782 22.792 55.5542 22.792C54.4822 22.792 53.5782 23.072 52.8422 23.632C52.1062 24.192 51.5462 24.912 51.1622 25.792C50.7782 26.656 50.5862 27.552 50.5862 28.48ZM70.7346 19.96L75.3426 33.064L79.9026 19.96H83.3826L76.9266 37H73.7346L67.2546 19.96H70.7346ZM88.4413 37V19.96H91.7533V37H88.4413ZM98.5485 37V19.96H104.74C106.596 19.96 108.148 20.344 109.396 21.112C110.644 21.864 111.58 22.888 112.204 24.184C112.828 25.464 113.141 26.888 113.141 28.456C113.141 30.184 112.797 31.688 112.109 32.968C111.42 34.248 110.444 35.24 109.18 35.944C107.916 36.648 106.436 37 104.74 37H98.5485ZM109.805 28.456C109.805 27.352 109.604 26.384 109.204 25.552C108.804 24.704 108.228 24.048 107.476 23.584C106.724 23.104 105.812 22.864 104.74 22.864H101.86V34.096H104.74C105.828 34.096 106.748 33.856 107.5 33.376C108.252 32.88 108.82 32.208 109.204 31.36C109.604 30.496 109.805 29.528 109.805 28.456ZM118.584 31.864V28.96H125.856V31.864H118.584Z" fill="#5A5A5A"/>
<path d="M136.871 19.96H140.231L146.495 37H143.087L141.503 32.752H135.551L133.991 37H130.583L136.871 19.96ZM140.903 30.424L138.551 23.392L136.103 30.424H140.903ZM151.604 37V19.96H154.916V37H151.604Z" fill="#F5C436"/>
<path d="M5.5 22L21.5 6H94" stroke="#63BB8A"/>
<path d="M16.5 33.5L31.5 48.5H97.5H116" stroke="#63BB8A"/>
<circle cx="17" cy="34" r="5" fill="white" stroke="#63BB8A" stroke-width="2"/>
<circle cx="94" cy="6" r="5" fill="white" stroke="#63BB8A" stroke-width="2"/>
<circle cx="116" cy="49" r="5" fill="white" stroke="#63BB8A" stroke-width="2"/>
<circle cx="6" cy="22" r="5" fill="white" stroke="#63BB8A" stroke-width="2"/>
</svg>
 
